<svg width="200" height="200" viewBox="0 0 200 200" xmlns="http://www.w3.org/2000/svg">
  <!-- Shell -->
  <ellipse cx="100" cy="110" rx="55" ry="40" fill="#27AE60" stroke="#000000" stroke-width="3"/>

  <!-- Shell Pattern -->
  <ellipse cx="100" cy="105" rx="20" ry="15" fill="#90EE90" stroke="#000000" stroke-width="2"/>
  <path d="M 100 90 L 100 70" stroke="#000000" stroke-width="2"/>
  <path d="M 80 105 L 55 100" stroke="#000000" stroke-width="2"/>
  <path d="M 120 105 L 145 100" stroke="#000000" stroke-width="2"/>
  <path d="M 85 120 L 65 140" stroke="#000000" stroke-width="2"/>
  <path d="M 115 120 L 135 140" stroke="#000000" stroke-width="2"/>

  <!-- Head -->
  <ellipse cx="165" cy="105" rx="18" ry="15" fill="#90EE90" stroke="#000000" stroke-width="3"/>

  <!-- Eye -->
  <circle cx="172" cy="100" r="4" fill="#000000"/>
  <circle cx="173" cy="99" r="1" fill="#FFFFFF"/>

  <!-- Smile -->
  <path d="M 168 110 Q 175 115 180 110" stroke="#000000" stroke-width="2" fill="none"/>

  <!-- Legs -->
  <ellipse cx="60" cy="130" rx="15" ry="12" fill="#90EE90" stroke="#000000" stroke-width="2"/>
  <ellipse cx="140" cy="130" rx="15" ry="12" fill="#90EE90" stroke="#000000" stroke-width="2"/>
  <ellipse cx="55" cy="90" rx="12" ry="10" fill="#90EE90" stroke="#000000" stroke-width="2"/>
  <ellipse cx="145" cy="90" rx="12" ry="10" fill="#90EE90" stroke="#000000" stroke-width="2"/>

  <!-- Tail -->
  <polygon points="35,115 25,110 30,120" fill="#90EE90" stroke="#000000" stroke-width="2"/>
</svg>
