<svg width="200" height="200" viewBox="0 0 200 200" xmlns="http://www.w3.org/2000/svg">
  <!-- Body -->
  <ellipse cx="100" cy="130" rx="45" ry="50" fill="#8B4513" stroke="#000000" stroke-width="3"/>

  <!-- Head -->
  <circle cx="100" cy="70" r="40" fill="#8B4513" stroke="#000000" stroke-width="3"/>

  <!-- Ear Tufts -->
  <polygon points="65,40 75,25 85,45" fill="#8B4513" stroke="#000000" stroke-width="2"/>
  <polygon points="115,45 125,25 135,40" fill="#8B4513" stroke="#000000" stroke-width="2"/>

  <!-- Eye Circles (white) -->
  <circle cx="80" cy="70" r="18" fill="#FFFFFF" stroke="#000000" stroke-width="2"/>
  <circle cx="120" cy="70" r="18" fill="#FFFFFF" stroke="#000000" stroke-width="2"/>

  <!-- Pupils -->
  <circle cx="80" cy="70" r="10" fill="#000000"/>
  <circle cx="120" cy="70" r="10" fill="#000000"/>

  <!-- Eye Highlights -->
  <circle cx="83" cy="67" r="3" fill="#FFFFFF"/>
  <circle cx="123" cy="67" r="3" fill="#FFFFFF"/>

  <!-- Beak -->
  <polygon points="100,78 95,90 105,90" fill="#FFA500" stroke="#000000" stroke-width="2"/>

  <!-- Chest Pattern -->
  <ellipse cx="100" cy="140" rx="25" ry="35" fill="#D2691E" stroke="#000000" stroke-width="2"/>

  <!-- Chest Lines -->
  <path d="M 85 120 Q 100 125 115 120" stroke="#000000" stroke-width="1.5" fill="none"/>
  <path d="M 82 135 Q 100 140 118 135" stroke="#000000" stroke-width="1.5" fill="none"/>
  <path d="M 80 150 Q 100 155 120 150" stroke="#000000" stroke-width="1.5" fill="none"/>

  <!-- Feet -->
  <path d="M 80 175 L 70 185 M 80 175 L 80 188 M 80 175 L 90 185" stroke="#FFA500" stroke-width="3" fill="none"/>
  <path d="M 120 175 L 110 185 M 120 175 L 120 188 M 120 175 L 130 185" stroke="#FFA500" stroke-width="3" fill="none"/>
</svg>
